<svg width="190" height="60" viewBox="0 0 190 60" fill="none" xmlns="http://www.w3.org/2000/svg">
<path d="M185.054 28.4446H176.379V26.501H187.182V39.4619H185.338V35.3767C185.13 35.52 184.937 35.6841 184.763 35.8664C182.257 39.4902 178.59 40.4544 174.45 40.1105C168.29 39.5947 165.206 35.2069 164.529 29.5894C164.17 26.6099 164.266 23.6781 165.236 20.7878C165.915 18.7446 167.202 16.9502 168.927 15.6379C170.653 14.3256 172.738 13.556 174.913 13.4291C178.065 13.2529 181.057 13.723 183.639 15.7036C185.493 17.127 186.443 19.0684 187.014 21.4407C186.388 21.4407 185.837 21.5213 185.328 21.4124C184.988 21.3384 184.522 21.0533 184.43 20.7595C183.138 16.7787 178.811 15.0158 174.803 15.4816C170.007 16.0366 167.307 20.161 167.002 24.12C166.837 26.2007 166.705 28.3489 167.046 30.386C167.646 33.975 169.681 36.6978 173.334 37.786C176.725 38.8046 179.891 38.2213 182.47 35.6661C184.439 33.7334 184.96 31.2392 185.054 28.4446Z" fill="#4AC4DC" stroke="#4AC4DC" stroke-width="1.4767"/>
<path d="M157.055 36.2166V14.1319H159.394V39.5444C158.633 39.5444 157.85 39.6271 157.121 39.5095C156.774 39.453 156.413 39.0743 156.19 38.7348C154.016 35.5158 151.871 32.2772 149.717 29.0451C147.184 25.2428 144.647 21.4275 141.844 17.6861V39.4922H139.446V14.2451C141.34 13.7293 141.981 13.9513 142.865 15.2768C147.464 22.1588 152.071 29.0349 156.687 35.9054C156.801 36.0181 156.924 36.1221 157.055 36.2166Z" fill="#4AC4DC" stroke="#4AC4DC" stroke-width="1.4767"/>
<path d="M105.558 39.5159H103.655V14.1426H105.558V39.5159Z" fill="#4AC4DC" stroke="#4AC4DC" stroke-width="1.4767"/>
<path d="M133.449 39.4946H131.573V21.3188H133.449V39.4946Z" fill="#4AC4DC" stroke="#4AC4DC" stroke-width="1.4767"/>
<path d="M112.333 16.4106V14.9719H124.366V16.4106H112.333Z" fill="#4AC4DC" stroke="#4AC4DC" stroke-width="1.4767"/>
<path d="M78.5264 18.8353H77.0691V13.8687H78.5264V18.8353Z" fill="#4AC4DC" stroke="#4AC4DC" stroke-width="1.4767"/>
<path d="M133.661 14.1406V17.0636H131.547V14.1406H133.661Z" fill="#4AC4DC" stroke="#4AC4DC" stroke-width="1.4767"/>
<path fill-rule="evenodd" clip-rule="evenodd" d="M95.7735 21.2991C95.7096 22.2502 95.6501 23.1382 95.5751 24.2613C93.7342 21.767 91.3818 20.446 87.9624 20.792C85.2396 21.0662 83.1518 22.2959 81.9326 24.7401C80.5459 27.526 80.5084 30.4773 81.1279 33.446C82.4573 39.81 88.734 41.401 93.161 38.8567C93.7545 38.5158 94.2873 38.0716 94.8847 37.5736C95.1838 37.3242 95.4991 37.0613 95.8463 36.7912C95.7854 37.2522 95.735 37.6984 95.6858 38.1333C95.5783 39.084 95.4769 39.9802 95.2863 40.8568C94.9005 42.6176 93.8775 44.028 92.1469 44.6591C90.1384 45.3904 87.9932 45.4644 86.0091 44.6591C85.1184 44.2913 84.2827 43.4098 83.8198 42.5501C83.4582 41.882 83.1518 41.734 82.5212 41.771C82.2697 41.7838 82.0173 41.7798 81.7408 41.7756C81.5931 41.7734 81.4384 41.771 81.2734 41.771C81.6041 43.6536 82.5168 44.9268 84.0292 45.7822C86.6021 47.2361 89.3624 47.2404 92.1402 46.642C94.3802 46.1587 96.1285 44.9094 96.867 42.7047C97.3646 41.3131 97.6506 39.8565 97.7158 38.3822C97.7857 34.5194 97.7732 30.6531 97.7608 26.7868C97.756 25.2832 97.7511 23.7797 97.7511 22.2763C97.7511 22.056 97.7338 21.8426 97.7158 21.6206C97.7073 21.5159 97.6987 21.4093 97.6916 21.2991H95.7735ZM83.0437 31.5446C82.9622 31.1296 82.8804 30.7136 82.788 30.2988C82.7833 30.2988 82.7796 30.2947 82.78 30.2901C82.8394 29.6985 82.9069 29.1148 83.0043 28.5459C83.013 28.4918 83.0222 28.4376 83.0321 28.3837C83.2531 27.1729 83.6219 26.0331 84.352 25.0323C84.5281 24.7908 84.7252 24.5574 84.9464 24.3331C87.9057 21.3326 92.9759 22.1303 94.7466 25.8878C94.7792 25.9569 94.8106 26.0271 94.8409 26.0982C94.8533 26.1271 94.8654 26.1559 94.8775 26.1848C95.1281 26.7836 95.3294 27.3843 95.478 27.9849C96.1173 30.5617 95.789 33.1269 94.2221 35.5381C94.1971 35.5765 94.172 35.6148 94.1465 35.6531C92.8237 37.6511 90.8395 38.4477 88.4386 38.1234C88.3574 38.1124 88.2771 38.1003 88.1978 38.0869C86.0414 37.7262 84.5579 36.4962 83.7929 34.5218C83.7495 34.4101 83.7085 34.2961 83.6699 34.1796C83.4561 33.5318 83.3033 32.8648 83.1655 32.1929C83.1287 32.0136 83.095 31.8335 83.065 31.6528C83.0579 31.6167 83.0508 31.5807 83.0437 31.5446Z" fill="#4AC4DC"/>
<path d="M95.5752 24.2613L95.1092 24.5965L96.0459 25.8656L96.1504 24.2987L95.5752 24.2613ZM95.7736 21.2991V20.73H95.2341L95.1983 21.2615L95.7736 21.2991ZM87.9624 20.792L88.0209 21.3582H88.0212L87.9624 20.792ZM81.9326 24.7401L81.4154 24.4887L81.4152 24.4891L81.9326 24.7401ZM81.1279 33.446L80.5633 33.5609L80.5633 33.5609L81.1279 33.446ZM93.161 38.8567L92.8711 38.3648L92.871 38.3649L93.161 38.8567ZM94.8848 37.5736L94.5128 37.1388L94.8848 37.5736ZM95.8464 36.7913L96.418 36.8648L96.601 35.4794L95.4895 36.3443L95.8464 36.7913ZM95.6858 38.1333L96.2588 38.1964L95.6858 38.1333ZM95.2864 40.8569L95.8498 40.9772L95.85 40.9764L95.2864 40.8569ZM92.1469 44.6592L92.3464 45.1932L92.3467 45.1931L92.1469 44.6592ZM86.0091 44.6592L85.7866 45.1843L85.7899 45.1856L86.0091 44.6592ZM83.8198 42.5502L84.3289 42.283L84.3284 42.282L83.8198 42.5502ZM82.5213 41.771L82.5509 42.3394L82.5555 42.3391L82.5213 41.771ZM81.7408 41.7756L81.7319 42.3447L81.7408 41.7756ZM81.2734 41.771V41.2018H80.5883L80.7054 41.8682L81.2734 41.771ZM84.0293 45.7823L83.7427 46.2761L83.7429 46.2762L84.0293 45.7823ZM92.1403 46.642L92.2632 47.198H92.2633L92.1403 46.642ZM96.8671 42.7047L96.3235 42.5153L96.3215 42.5207L96.3197 42.526L96.8671 42.7047ZM97.7159 38.3823L98.2918 38.4071L98.2922 38.3997L98.2923 38.3924L97.7159 38.3823ZM97.7609 26.7868L98.3374 26.7849L97.7609 26.7868ZM97.7159 21.6207L98.2905 21.5753L97.7159 21.6207ZM97.6916 21.2991L98.267 21.2632L98.2328 20.73H97.6916V21.2991ZM82.7881 30.2989L83.3511 30.1765L83.2515 29.7297H82.7881V30.2989ZM83.0438 31.5447L83.6097 31.4363L83.0438 31.5447ZM82.7801 30.2901L83.3538 30.3463L82.7801 30.2901ZM83.0044 28.546L83.5729 28.6409L83.5739 28.6346L83.0044 28.546ZM83.0321 28.3837L83.5995 28.4846L83.0321 28.3837ZM84.352 25.0323L84.8199 25.3649L84.82 25.3648L84.352 25.0323ZM84.9464 24.3331L84.5334 23.9361L84.5333 23.9362L84.9464 24.3331ZM94.7467 25.8878L94.2239 26.1279L94.7467 25.8878ZM94.841 26.0983L95.3725 25.8778L95.3724 25.8776L94.841 26.0983ZM94.8775 26.1848L94.3445 26.4018L94.3447 26.4022L94.8775 26.1848ZM95.4781 27.985L94.918 28.12L94.9181 28.1204L95.4781 27.985ZM94.2221 35.5381L93.7369 35.2309L93.7367 35.2311L94.2221 35.5381ZM94.1465 35.6531L93.6649 35.3402L93.6639 35.3417L94.1465 35.6531ZM88.4386 38.1234L88.3605 38.6873L88.4386 38.1234ZM88.1978 38.087L88.2946 37.5259L88.2942 37.5258L88.1978 38.087ZM83.7929 34.5219L84.3314 34.3185L84.3313 34.3184L83.7929 34.5219ZM83.6699 34.1796L83.1217 34.356L83.1221 34.357L83.6699 34.1796ZM83.1655 32.193L82.6005 32.3058L83.1655 32.193ZM83.065 31.6528L83.6339 31.5606L83.6326 31.5525L83.631 31.5443L83.065 31.6528ZM96.1504 24.2987C96.2254 23.1757 96.2849 22.2878 96.3488 21.3368L95.1983 21.2615C95.1343 22.2127 95.0748 23.1007 94.9999 24.2239L96.1504 24.2987ZM88.0212 21.3582C89.6392 21.1945 90.9721 21.427 92.1083 21.9732C93.2484 22.5213 94.2287 23.4036 95.1092 24.5965L96.0411 23.9261C95.0806 22.6248 93.9644 21.5994 92.6131 20.9499C91.2581 20.2985 89.7051 20.0435 87.9036 20.2258L88.0212 21.3582ZM82.4498 24.9916C83.5686 22.7488 85.4653 21.6157 88.0209 21.3582L87.9039 20.2258C85.014 20.5169 82.7351 21.843 81.4154 24.4887L82.4498 24.9916ZM81.6926 33.3312C81.0891 30.439 81.1381 27.6268 82.4501 24.9911L81.4152 24.4891C79.9537 27.4251 79.9278 30.5156 80.5633 33.5609L81.6926 33.3312ZM92.871 38.3649C90.8009 39.5546 88.308 39.7707 86.1911 38.9613C84.0927 38.1588 82.3194 36.3318 81.6926 33.3311L80.5633 33.5609C81.2659 36.9242 83.2957 39.0747 85.7746 40.0227C88.2353 40.9636 91.0941 40.7032 93.4511 39.3486L92.871 38.3649ZM94.5128 37.1388C93.9073 37.6436 93.4133 38.0534 92.8711 38.3648L93.4509 39.3487C94.0958 38.9783 94.6675 38.4997 95.2568 38.0084L94.5128 37.1388ZM95.4895 36.3443C95.1335 36.6212 94.8112 36.89 94.5128 37.1388L95.2568 38.0084C95.5566 37.7584 95.8648 37.5015 96.2032 37.2382L95.4895 36.3443ZM96.2588 38.1964C96.308 37.7609 96.358 37.3198 96.418 36.8648L95.2747 36.7177C95.213 37.1847 95.162 37.636 95.1129 38.0702L96.2588 38.1964ZM95.85 40.9764C96.0477 40.0669 96.1518 39.1419 96.2588 38.1964L95.1129 38.0702C95.0047 39.0262 94.9062 39.8935 94.7227 40.7374L95.85 40.9764ZM92.3467 45.1931C94.2995 44.4809 95.4315 42.8863 95.8498 40.9772L94.7228 40.7366C94.3695 42.349 93.4557 43.5752 91.9471 44.1253L92.3467 45.1931ZM85.7899 45.1856C87.9279 46.0533 90.2243 45.9658 92.3464 45.1932L91.9474 44.1252C90.0526 44.8151 88.0587 44.8756 86.2283 44.1328L85.7899 45.1856ZM83.3108 42.8173C83.8171 43.7575 84.74 44.7521 85.7866 45.1843L86.2316 44.1342C85.4967 43.8307 84.7486 43.0622 84.3289 42.283L83.3108 42.8173ZM82.5555 42.3391C82.8285 42.3232 82.9256 42.3558 82.9803 42.3874C83.043 42.4236 83.1477 42.516 83.3113 42.8183L84.3284 42.282C84.1305 41.9163 83.9011 41.6005 83.5626 41.4049C83.216 41.2048 82.8446 41.1819 82.4871 41.2028L82.5555 42.3391ZM81.7319 42.3447C82.0047 42.3489 82.2768 42.3533 82.5509 42.3394L82.4917 41.2026C82.2628 41.2142 82.0301 41.2109 81.7498 41.2066L81.7319 42.3447ZM81.2734 42.3401C81.4334 42.3401 81.5837 42.3424 81.7319 42.3447L81.7498 41.2066C81.6025 41.2043 81.4436 41.2018 81.2734 41.2018V42.3401ZM84.3159 45.2884C82.9599 44.5215 82.1444 43.398 81.8415 41.6737L80.7054 41.8682C81.0639 43.9092 82.0738 45.3323 83.7427 46.2761L84.3159 45.2884ZM92.0174 46.0859C89.3155 46.668 86.7179 46.6458 84.3157 45.2883L83.7429 46.2762C86.4864 47.8265 89.4093 47.813 92.2632 47.198L92.0174 46.0859ZM96.3197 42.526C95.6588 44.499 94.1047 45.6356 92.0172 46.0859L92.2633 47.198C94.6557 46.6819 96.5982 45.32 97.4145 42.8834L96.3197 42.526ZM97.14 38.3575C97.0772 39.7756 96.8021 41.1767 96.3235 42.5153L97.4107 42.8942C97.9273 41.4497 98.2242 39.9375 98.2918 38.4071L97.14 38.3575ZM97.1843 26.7886C97.1968 30.656 97.2092 34.5162 97.1395 38.3721L98.2923 38.3924C98.3623 34.5226 98.3498 30.6504 98.3374 26.7849L97.1843 26.7886ZM97.1746 22.2763C97.1746 23.7808 97.1795 25.2852 97.1843 26.7886L98.3374 26.7849C98.3325 25.2813 98.3277 23.7787 98.3277 22.2763H97.1746ZM97.1412 21.6661C97.1595 21.8916 97.1746 22.0825 97.1746 22.2763H98.3277C98.3277 22.0295 98.3082 21.7937 98.2905 21.5753L97.1412 21.6661ZM97.1163 21.3351C97.1237 21.4508 97.1327 21.5621 97.1412 21.6661L98.2905 21.5753C98.282 21.4699 98.2737 21.3679 98.267 21.2632L97.1163 21.3351ZM95.7736 21.8683H97.6916V20.73H95.7736V21.8683ZM82.225 30.4211C82.3156 30.8278 82.3961 31.237 82.4778 31.6531L83.6097 31.4363C83.5284 31.0224 83.4454 30.5994 83.3511 30.1765L82.225 30.4211ZM82.2064 30.234C82.1724 30.5724 82.4413 30.868 82.7881 30.868V29.7297C83.1253 29.7297 83.3869 30.0171 83.3538 30.3463L82.2064 30.234ZM82.4359 28.451C82.3352 29.0392 82.2662 29.6382 82.2064 30.234L83.3538 30.3463C83.4127 29.7589 83.4787 29.1904 83.5728 28.6409L82.4359 28.451ZM83.5739 28.6346C83.5818 28.5844 83.5904 28.5345 83.5995 28.4846L82.4648 28.2827C82.4541 28.3409 82.4442 28.3991 82.4349 28.4574L83.5739 28.6346ZM83.5995 28.4846C83.8123 27.3189 84.159 26.2709 84.8199 25.3649L83.8843 24.6998C83.0849 25.7954 82.694 27.027 82.4648 28.2827L83.5995 28.4846ZM84.5333 23.9362C84.292 24.1809 84.0767 24.4358 83.8842 24.6998L84.82 25.3648C84.9796 25.1458 85.1585 24.934 85.3595 24.7301L84.5333 23.9362ZM95.2693 25.6477C93.3231 21.5177 87.7653 20.659 84.5334 23.9361L85.3595 24.7301C88.0462 22.0061 92.6288 22.7431 94.2239 26.1279L95.2693 25.6477ZM95.3724 25.8776C95.3393 25.7999 95.305 25.7233 95.2693 25.6477L94.2239 26.1279C94.2535 26.1906 94.2821 26.2543 94.3096 26.319L95.3724 25.8776ZM95.4105 25.9679C95.3979 25.9379 95.3853 25.9078 95.3725 25.8778L94.3095 26.3187C94.3213 26.3464 94.333 26.3741 94.3445 26.4018L95.4105 25.9679ZM94.3447 26.4022C94.585 26.9763 94.7769 27.5495 94.918 28.12L96.0381 27.85C95.8821 27.2192 95.6714 26.591 95.4103 25.9675L94.3447 26.4022ZM94.7074 35.8455C96.3648 33.295 96.7125 30.5682 96.038 27.8496L94.9181 28.1204C95.5221 30.5552 95.2133 32.9589 93.7369 35.2309L94.7074 35.8455ZM93.7367 35.2311C93.7131 35.2675 93.6892 35.3039 93.665 35.3402L94.6281 35.9661C94.6549 35.9259 94.6814 35.8856 94.7075 35.8452L93.7367 35.2311ZM93.6639 35.3417C92.4735 37.1397 90.7169 37.8567 88.5168 37.5595L88.3605 38.6873C90.9621 39.0387 93.1739 38.1625 94.6291 35.9645L93.6639 35.3417ZM88.5168 37.5595C88.4418 37.5494 88.3677 37.5381 88.2946 37.5259L88.101 38.648C88.1867 38.6624 88.2732 38.6755 88.3605 38.6873L88.5168 37.5595ZM83.2545 34.7252C84.0914 36.8852 85.7413 38.2532 88.1015 38.6481L88.2942 37.5258C86.3416 37.1991 85.0245 36.1073 84.3314 34.3185L83.2545 34.7252ZM84.3313 34.3184C84.2915 34.2155 84.2535 34.1102 84.2177 34.0023L83.1221 34.357C83.1636 34.482 83.2078 34.6049 83.2545 34.7254L84.3313 34.3184ZM84.2181 34.0033C84.0147 33.387 83.8671 32.7456 83.7306 32.08L82.6005 32.3058C82.7396 32.9842 82.8975 33.6766 83.1217 34.356L84.2181 34.0033ZM83.7306 32.08C83.6951 31.9071 83.6627 31.7339 83.6339 31.5606L82.4961 31.745C82.5274 31.9331 82.5624 32.1202 82.6005 32.3058L83.7306 32.08ZM82.4778 31.6531C82.4849 31.6891 82.492 31.7252 82.4991 31.7613L83.631 31.5443C83.6239 31.5084 83.6168 31.4724 83.6097 31.4363L82.4778 31.6531Z" fill="#4AC4DC"/>
<path fill-rule="evenodd" clip-rule="evenodd" d="M123.777 38.3015C126.297 36.2731 127.133 33.4915 127.117 29.8873C127.219 27.602 126.484 25.3571 125.047 23.5625C123.151 21.1835 120.519 20.5611 117.576 20.7788C114.882 20.9768 112.805 22.1935 111.482 24.4788C109.687 27.5672 109.544 30.8667 110.569 34.2358C112.463 40.4518 119.93 41.3942 123.777 38.3015ZM112.3 30.5363V30.4795V30.4076C112.149 28.082 112.658 25.9492 114.291 24.2175C114.304 24.2037 114.317 24.1899 114.33 24.1762C114.574 23.9223 114.852 23.6945 115.157 23.4949C117.896 21.7005 122.812 22.1722 124.253 26.3544C124.27 26.4034 124.286 26.4529 124.302 26.5028C124.531 27.2255 124.707 27.9532 124.819 28.6821C125.07 30.3268 124.992 31.9774 124.459 33.5877C124.284 34.1185 124.059 34.645 123.78 35.1654C122.635 37.3005 120.755 38.2604 118.347 38.1842C115.993 38.108 114.125 37.0959 113.21 34.9086C113.205 34.8968 113.201 34.885 113.196 34.8732C112.619 33.4795 112.3 31.9905 112.3 30.5363Z" fill="#4AC4DC"/>
<path d="M127.117 29.8874L126.542 29.8625L126.541 29.8762L126.541 29.8898L127.117 29.8874ZM123.777 38.3016L124.141 38.7429L124.142 38.7427L123.777 38.3016ZM125.047 23.5626L124.594 23.9145L124.595 23.9154L125.047 23.5626ZM117.576 20.7789L117.618 21.3464H117.619L117.576 20.7789ZM111.482 24.4789L111.982 24.7621L111.982 24.7612L111.482 24.4789ZM110.569 34.2359L110.017 34.3997L110.017 34.3999L110.569 34.2359ZM112.3 30.4796H111.723V30.4797L112.3 30.4796ZM112.3 30.5364H112.876H112.3ZM112.3 30.4077L112.876 30.4077V30.3895L112.875 30.3714L112.3 30.4077ZM114.291 24.2176L114.713 24.6055L114.714 24.6046L114.291 24.2176ZM114.33 24.1763L113.911 23.7853L113.911 23.7863L114.33 24.1763ZM115.157 23.495L115.475 23.9694L115.475 23.9693L115.157 23.495ZM124.253 26.3545L123.707 26.5379L123.707 26.5381L124.253 26.3545ZM124.302 26.5029L124.852 26.3328L124.852 26.3322L124.302 26.5029ZM124.819 28.6822L125.389 28.5974L124.819 28.6822ZM124.459 33.5878L123.911 33.4111L124.459 33.5878ZM123.78 35.1655L123.27 34.8992L123.27 34.8993L123.78 35.1655ZM118.347 38.1843L118.328 38.7531H118.329L118.347 38.1843ZM113.21 34.9087L112.677 35.1256L112.677 35.1259L113.21 34.9087ZM113.196 34.8733L113.73 34.66L113.729 34.6579L113.196 34.8733ZM126.541 29.8898C126.556 33.4034 125.745 35.9833 123.413 37.8605L124.142 38.7427C126.85 36.563 127.71 33.5799 127.694 29.885L126.541 29.8898ZM124.595 23.9154C125.946 25.603 126.637 27.7138 126.542 29.8625L127.693 29.9123C127.801 27.4905 127.022 25.1116 125.5 23.2097L124.595 23.9154ZM117.619 21.3464C120.451 21.137 122.859 21.7377 124.594 23.9145L125.5 23.2106C123.443 20.6296 120.587 19.9855 117.533 20.2113L117.619 21.3464ZM111.982 24.7612C113.204 22.6516 115.102 21.5314 117.618 21.3464L117.533 20.2113C114.661 20.4224 112.406 21.7355 110.981 24.1964L111.982 24.7612ZM111.121 34.0722C110.133 30.8241 110.28 27.6909 111.982 24.7621L110.982 24.1957C109.095 27.4436 108.955 30.9095 110.017 34.3997L111.121 34.0722ZM123.413 37.8603C121.646 39.2809 119.008 39.7955 116.578 39.2068C114.169 38.6234 112.003 36.9661 111.121 34.0721L110.017 34.3999C111.029 37.7218 113.543 39.6438 116.303 40.3123C119.042 40.9756 122.061 40.4152 124.141 38.7429L123.413 37.8603ZM111.723 30.4797V30.5365L112.876 30.5364V30.4795L111.723 30.4797ZM112.876 30.4795V30.4077L111.723 30.4078V30.4796L112.876 30.4795ZM112.875 30.3714C112.731 28.1541 113.217 26.1917 114.713 24.6055L113.869 23.8298C112.099 25.707 111.567 28.0101 111.724 30.4441L112.875 30.3714ZM113.911 23.7863C113.897 23.8009 113.883 23.8157 113.869 23.8306L114.714 24.6046C114.726 24.592 114.738 24.5792 114.75 24.5664L113.911 23.7863ZM114.838 23.0207C114.499 23.2424 114.187 23.4976 113.911 23.7853L114.749 24.5674C114.96 24.3472 115.204 24.1469 115.475 23.9694L114.838 23.0207ZM115.475 23.9693C116.705 23.1639 118.453 22.8556 120.057 23.2368C121.639 23.6128 123.057 24.6519 123.707 26.5379L124.799 26.1713C124.008 23.875 122.248 22.587 120.327 22.1302C118.427 21.6787 116.348 22.0316 114.838 23.0208L115.475 23.9693ZM124.852 26.3322C124.835 26.278 124.817 26.2243 124.799 26.1711L123.707 26.5381C123.723 26.5828 123.738 26.628 123.752 26.6737L124.852 26.3322ZM125.389 28.5974C125.272 27.8365 125.089 27.0801 124.852 26.3328L123.752 26.6731C123.973 27.371 124.142 28.0702 124.248 28.767L125.389 28.5974ZM125.007 33.7646C125.572 32.0575 125.651 30.3159 125.389 28.5974L124.248 28.767C124.488 30.338 124.412 31.8975 123.911 33.4111L125.007 33.7646ZM123.911 33.4111C123.746 33.9109 123.534 34.4074 123.27 34.8992L124.289 35.4319C124.584 34.8828 124.822 34.3264 125.008 33.7646L123.911 33.4111ZM123.27 34.8993C122.744 35.8807 122.063 36.568 121.259 37.0057C120.452 37.4446 119.487 37.6509 118.366 37.6154L118.329 38.7531C119.615 38.7938 120.794 38.5582 121.815 38.0026C122.839 37.4456 123.671 36.5854 124.289 35.4317L123.27 34.8993ZM118.366 37.6154C116.19 37.545 114.555 36.6313 113.743 34.6914L112.677 35.1259C113.696 37.5608 115.796 38.6712 118.328 38.7531L118.366 37.6154ZM113.743 34.6917C113.739 34.6812 113.735 34.6705 113.73 34.66L112.661 35.0865C112.667 35.0997 112.672 35.1127 112.677 35.1256L113.743 34.6917ZM111.723 30.5364C111.723 32.0713 112.059 33.6331 112.662 35.0887L113.729 34.6579C113.178 33.326 112.876 31.9101 112.876 30.5364H111.723Z" fill="#4AC4DC"/>
<circle cx="30" cy="30" r="30" fill="white"/>
<path fill-rule="evenodd" clip-rule="evenodd" d="M12.4653 50.843C13.0981 52.3865 13.7552 53.9895 14.3187 55.6302C13.025 54.8347 11.7962 53.9438 10.6421 52.9672C8.33459 47.0101 7.28288 42.8204 8.09719 38.0896C9.08466 32.3528 10.8945 25.5456 20.1886 19.5324C15.178 20.5241 10.2789 23.2463 7.39602 28.2441C4.86128 32.6383 4.0122 38.6453 3.68671 44.4602C1.33663 40.1772 0 35.2583 0 30.0269C0 13.4435 13.4315 0 30 0C46.5685 0 60 13.4435 60 30.0269C60 44.6367 49.5752 56.8096 35.7648 59.5C36.3495 57.8032 36.6595 55.5413 36.6595 52.5432C36.667 51.8412 36.6595 50.3013 36.6595 50.3013C36.6595 46.9295 33.2083 44.3963 30.1354 42.1408C28.0628 40.6195 26.1623 39.2245 25.6088 37.7837C25.4955 37.4889 25.2993 37.2215 25.0161 37.082C17.7891 33.5216 16.8404 28.7329 22.6299 20.1097C18.4435 22.7818 15.3372 25.0581 13.0547 29.0146C10.1718 34.0125 9.52194 39.4678 9.89704 42.1834C9.9391 44.6809 11.1494 47.6331 12.4653 50.843ZM31.8534 21.0433L31.8533 21.0433C30.0038 19.8355 27.3712 18.1164 25.9686 12.8772C23.6075 14.567 22.9712 18.4598 23.9999 21L22.6437 23.4504C20.8419 26.574 20.227 28.9953 21.5046 31.6771C23.0001 34.8165 27.9296 35.472 30.777 35.8507C31.752 35.9804 32.4829 36.0775 32.7482 36.2309C34.3588 37.1616 34.9761 38.109 35.4755 38.8755C35.8148 39.3963 36.0997 39.8335 36.6047 40.1254C37.4369 40.6063 38.4031 39.8971 39 38.6749L39.0003 38.6746C38.1654 37.8974 37.4213 37.3168 36.4889 36.6447C36.2975 36.5067 36.4507 36.2242 36.6678 36.3167C38.0777 36.9179 39.6072 37.641 40.5692 38.2236C42.2034 38.595 42.802 37.5574 43.8654 35.7137C44.9465 33.8395 44.6618 32.4096 42.7223 31.4436C38.3867 29.2842 36.3849 27.3731 33.673 22.6048C33.3353 22.011 32.6708 21.5771 31.8534 21.0433ZM42.9117 13.9349L47.6647 11.8579C47.8847 11.7617 48.0628 12.0564 47.8756 12.2068L45.7279 13.9317C45.524 14.0871 45.0873 14.0151 44.5901 13.9333C44.0245 13.8401 43.3805 13.7341 42.9117 13.9349ZM35.9694 17.1439L38.3144 16.1789C38.7841 16.0023 39.3654 16.2151 39.9698 16.4363C40.7511 16.7223 41.571 17.0224 42.2382 16.5141L40.6603 17.7162C40.2662 18.0165 39.8282 18.0968 39.3781 18.0577C39.3507 18.0553 39.4597 17.9807 39.6166 17.8734L39.6167 17.8734C39.8262 17.73 40.121 17.5282 40.2905 17.362C40.372 17.2821 40.3206 17.1707 40.2094 17.1459C39.8707 17.0703 39.5221 17.3262 39.2092 17.556C38.9435 17.7511 38.7035 17.9273 38.5172 17.8655C38.2101 17.7638 37.9067 17.6363 37.617 17.5147L37.617 17.5147L37.617 17.5146C36.9576 17.2377 36.3693 16.9906 35.9694 17.1439ZM35.9694 17.1439L35.9419 17.1553L35.9533 17.1504L35.9694 17.1439ZM38.6549 17.2372C38.4396 17.3353 38.2463 17.2448 38.0279 17.1426C37.9614 17.1114 37.8925 17.0791 37.8199 17.0508C37.8649 17.0274 37.9074 17.0042 37.9484 16.9817C38.196 16.846 38.39 16.7398 38.7481 16.8197L39.1656 16.9129C39.4606 16.9787 39.212 17.055 38.9501 17.1354L38.9501 17.1354C38.8413 17.1688 38.7302 17.2029 38.6549 17.2372ZM34.7438 18.2968L32.0647 19.3993C32.0541 19.4034 32.0436 19.4077 32.0332 19.4123L32.0647 19.3993C32.5215 19.2241 33.1937 19.5064 33.9469 19.8228C34.2779 19.9618 34.6245 20.1074 34.9754 20.2237C35.1883 20.2942 35.4625 20.0929 35.766 19.87C36.1235 19.6076 36.5217 19.3151 36.9087 19.4015C37.0358 19.4299 37.0944 19.5572 37.0014 19.6484C36.8077 19.8384 36.4709 20.0689 36.2315 20.2326C36.0523 20.3553 35.9277 20.4405 35.959 20.4432C36.4732 20.4879 36.9736 20.3961 37.4239 20.0531L39.2266 18.6797C38.4643 19.2605 37.5276 18.9176 36.635 18.5909C35.9445 18.3382 35.2803 18.0951 34.7438 18.2968ZM34.4164 19.3977C34.6659 19.5145 34.8868 19.6179 35.1328 19.5058C35.2188 19.4666 35.3457 19.4277 35.47 19.3895C35.7692 19.2977 36.0532 19.2106 35.7162 19.1353L35.2392 19.0289C34.83 18.9375 34.6084 19.0589 34.3256 19.2139C34.2787 19.2396 34.2302 19.2662 34.1788 19.2929C34.2616 19.3252 34.3402 19.362 34.4161 19.3976L34.4163 19.3977L34.4164 19.3977ZM40.0014 15.2225L41.8844 14.4475C42.2616 14.3058 42.7284 14.4766 43.2137 14.6543C43.8411 14.8839 44.4995 15.1249 45.0353 14.7167L43.7682 15.682C43.4517 15.9231 43.1 15.9876 42.7386 15.9562C42.7166 15.9543 42.8041 15.8944 42.9301 15.8082C43.0984 15.6931 43.3351 15.5311 43.4712 15.3976C43.5366 15.3334 43.4954 15.244 43.4061 15.224C43.1341 15.1633 42.8542 15.3689 42.6029 15.5533C42.3896 15.71 42.1969 15.8515 42.0473 15.8019C41.8006 15.7202 41.557 15.6179 41.3243 15.5201C40.7949 15.2978 40.3225 15.0993 40.0014 15.2225ZM39.9792 15.2316L40.0014 15.2225C39.9939 15.2253 39.9865 15.2284 39.9792 15.2316ZM42.1578 15.2974C41.985 15.3761 41.8297 15.3035 41.6544 15.2214C41.6009 15.1963 41.5456 15.1704 41.4873 15.1477C41.5234 15.1289 41.5575 15.1103 41.5904 15.0922L41.5905 15.0922C41.7893 14.9832 41.9451 14.8979 42.2327 14.9621L42.5679 15.0369C42.8048 15.0898 42.6052 15.1511 42.3949 15.2156C42.3075 15.2424 42.2183 15.2698 42.1578 15.2974Z" fill="#4AC4DC"/>
<path d="M32.0515 25.1507C31.3979 24.2015 31.0116 23.845 30.3912 23.4406C30.3129 23.3895 30.2081 23.4004 30.1297 23.4513C29.7722 23.6829 29.0705 23.9635 29.7437 24.6374C30.5129 25.4074 31.9148 26.9444 32.0514 26.4339C32.1879 25.9234 32.3389 25.5682 32.0515 25.1507Z" fill="#4AC4DC"/>
<path fill-rule="evenodd" clip-rule="evenodd" d="M43.0675 34.6233C42.9319 34.8663 42.6014 34.9364 42.3294 34.7797C42.0934 34.6439 41.8531 34.4779 41.6825 34.2271C41.5089 33.9719 41.4555 33.7006 41.4378 33.4354C41.4184 33.1466 41.6486 32.9233 41.9519 32.9367C42.2553 32.95 42.5169 33.195 42.5362 33.4838C42.5487 33.6695 42.5795 33.7175 42.5875 33.7293C42.5984 33.7453 42.637 33.794 42.8206 33.8997C43.0926 34.0563 43.2031 34.3803 43.0675 34.6233Z" fill="#4AC4DC"/>
</svg>
