<svg width="32" height="30" viewBox="0 0 32 30" fill="none" xmlns="http://www.w3.org/2000/svg">
<path d="M6.91525 18.8839C8.18079 19.2411 9.22034 19.9107 10.0339 20.8929C10.8475 21.875 11.2542 23.0357 11.2542 24.375C11.2542 25.9821 10.7119 27.3214 9.62712 28.3929C8.54237 29.4643 7.23164 30 5.69492 30C4.0678 30 2.71186 29.4643 1.62712 28.3929C0.542373 27.3214 0 25.9821 0 24.375C0 22.7679 0.40678 20.7143 1.22034 18.2143L6.50847 0H11.2542L6.91525 18.8839ZM27.661 18.8839C28.9266 19.2411 29.9661 19.9107 30.7797 20.8929C31.5932 21.875 32 23.0357 32 24.375C32 25.9821 31.4576 27.3214 30.3729 28.3929C29.2881 29.4643 27.9774 30 26.4407 30C24.8136 30 23.4576 29.4643 22.3729 28.3929C21.2881 27.3214 20.7458 25.9821 20.7458 24.375C20.7458 22.7679 21.1525 20.7143 21.9661 18.2143L27.2542 0H32L27.661 18.8839Z" fill="#F9F4EE"/>
</svg>
